<svg version="1.1" id="Layer_1" xmlns="http://www.w3.org/2000/svg" xmlns:xlink="http://www.w3.org/1999/xlink" x="0px" y="0px"
	 width="100%" viewBox="0 0 512 512" enable-background="new 0 0 512 512" xml:space="preserve">
<path fill="#F5EEE5" opacity="1.000000" stroke="none" 
	d="
M512.756836,224.708008 
	C513.000000,246.020889 513.000000,267.041779 513.000000,288.531342 
	C511.039032,291.499146 512.230835,294.471741 511.819153,297.203796 
	C506.491425,332.563141 494.019287,365.220215 474.864929,395.357666 
	C469.514282,403.776306 463.773590,411.927216 457.407654,419.622742 
	C456.027100,421.291687 454.718872,423.029236 452.113403,423.761688 
	C443.357788,422.309998 435.194702,419.969513 426.992096,417.826324 
	C401.550568,411.179047 376.014221,404.888641 350.692871,397.788574 
	C343.100708,395.659729 335.978760,392.522980 330.175476,386.901428 
	C325.019012,381.906525 321.985535,376.111816 322.391266,368.723541 
	C322.600861,364.906433 322.342163,361.069550 322.499390,356.817108 
	C322.140839,350.810516 322.150482,345.231476 322.553528,339.219574 
	C322.584473,338.499542 322.600342,338.213654 322.658752,337.503693 
	C324.033112,332.512146 327.221802,328.954224 329.394562,324.837433 
	C339.919342,304.895874 346.100311,283.468964 351.119110,261.665955 
	C357.799316,232.645447 360.760406,203.242447 360.502869,173.427597 
	C360.141937,131.637863 336.576843,100.399239 295.968933,89.756210 
	C277.994446,85.045227 259.639282,83.719460 240.979385,85.248665 
	C225.852432,86.488335 211.126450,89.019737 197.548737,95.791328 
	C168.896347,110.081085 153.186218,133.300400 151.625031,165.479385 
	C149.998779,198.999893 153.948456,232.006775 161.642548,264.613068 
	C166.323837,284.451538 172.268372,303.846832 181.310501,322.203156 
	C184.048828,327.762207 187.859070,332.640533 190.994751,338.426758 
	C191.275070,339.380402 191.358597,339.943634 191.419220,340.945068 
	C191.793640,345.123657 191.705048,348.878571 191.574768,353.052917 
	C191.601913,358.128845 191.299850,362.806702 191.640015,367.437927 
	C192.415588,377.997192 187.128876,385.148529 179.033218,390.790375 
	C174.211914,394.150330 168.807831,396.455505 163.185913,397.977325 
	C130.914307,406.713257 98.477898,414.822937 66.146614,423.333832 
	C65.178764,423.588623 64.182159,423.681335 62.793644,423.851929 
	C59.816059,423.592041 58.338799,421.765015 56.861404,419.947052 
	C28.786318,385.400635 10.895740,346.176544 2.869532,302.418060 
	C2.091372,298.175537 2.383316,293.823303 1.244433,289.298279 
	C1.000000,267.645782 1.000000,246.291550 1.000000,224.468658 
	C2.867576,221.845673 1.830357,219.183594 2.192202,216.778320 
	C7.397482,182.177658 19.373533,150.059921 37.975830,120.498444 
	C64.538567,78.286766 100.315712,46.135761 145.188004,24.345041 
	C167.641098,13.441453 191.250381,5.947459 216.034760,2.335099 
	C218.832657,1.927301 221.717224,2.623676 224.708313,1.243118 
	C246.020889,1.000000 267.041779,1.000000 288.531342,1.000000 
	C291.503754,2.974559 294.485229,1.768287 297.223877,2.182728 
	C331.644348,7.391625 363.632111,19.240393 393.079803,37.710762 
	C434.871613,63.923683 466.924286,99.137169 488.764954,143.402985 
	C500.182190,166.542969 508.095276,190.882996 511.753632,216.524094 
	C512.129211,219.156570 511.403137,221.874207 512.756836,224.708008 
z"/>
<path fill="#E6C19C" opacity="1.000000" stroke="none" 
	d="
M61.790382,423.452637 
	C74.408005,419.750305 86.895699,416.360168 99.412491,413.081146 
	C120.289810,407.611908 141.237091,402.400940 162.048630,396.693726 
	C170.402710,394.402771 178.395950,390.980682 184.416687,384.214569 
	C187.971909,380.219208 190.232635,375.826416 190.103989,370.296173 
	C189.984085,365.141144 190.189194,359.978516 190.365631,354.357788 
	C193.632004,352.316223 194.602585,355.101440 195.898300,356.789703 
	C204.841949,368.442810 215.716415,377.645416 228.614120,384.835724 
	C252.865433,398.355560 275.341766,394.034637 296.988861,379.121704 
	C304.684601,373.820068 311.698364,367.682251 317.448242,360.195801 
	C318.790100,358.448700 319.978180,356.086578 323.206604,356.688477 
	C323.650818,360.706421 324.124329,364.541260 323.850433,368.321960 
	C323.181885,377.551392 327.918793,383.802856 334.771271,388.849457 
	C341.439972,393.760712 349.299500,396.000977 357.188507,398.039886 
	C387.186584,405.792908 417.192017,413.517517 447.188263,421.277618 
	C448.626434,421.649689 450.003265,422.258942 451.750122,422.925415 
	C452.844635,425.846252 450.918396,427.444977 449.377838,429.124237 
	C409.935577,472.118683 361.831604,499.722107 304.380554,510.754822 
	C299.472595,511.697327 294.474060,511.616730 289.289307,512.757202 
	C286.299988,513.000000 283.599976,513.000000 280.449982,513.000000 
	C275.932617,511.903778 271.793976,512.736938 267.346588,512.772644 
	C260.645599,513.000000 254.291214,513.000000 247.468414,513.000000 
	C242.932617,511.903992 238.793991,512.736755 234.346588,512.772705 
	C231.299988,513.000000 228.599976,513.000000 225.449982,513.000000 
	C220.304321,511.120300 215.239456,511.688019 210.372086,510.793274 
	C165.449356,502.535553 125.672768,483.513397 90.646393,454.301544 
	C81.407471,446.596375 73.390800,437.664246 64.801041,429.308167 
	C63.256317,427.805481 61.720741,426.210663 61.790382,423.452637 
z"/>
<path fill="#000000" opacity="1.000000" stroke="none" 
	d="
M61.592636,422.953857 
	C62.811554,425.250031 64.368797,426.888580 65.965790,428.566498 
	C82.655136,446.102112 100.561356,462.148865 121.286652,474.884033 
	C141.176147,487.105591 162.202850,496.576324 184.646881,503.170013 
	C195.686203,506.413208 206.981216,508.227631 218.090210,510.983643 
	C220.568817,511.598541 223.460907,509.804657 225.309860,512.638794 
	C151.738327,513.000000 78.476593,512.964172 5.215190,513.105103 
	C1.526532,513.112183 0.902595,512.242676 0.908459,508.723145 
	C1.029969,435.794708 1.000000,362.865967 1.000000,289.468658 
	C3.209479,288.041748 2.881796,289.855713 2.974706,290.928314 
	C4.572422,309.372833 9.642371,326.983917 15.743045,344.348450 
	C23.899429,367.564178 35.481945,388.938538 50.132896,408.696991 
	C53.710346,413.521606 57.254742,418.353058 61.592636,422.953857 
z"/>
<path fill="#000000" opacity="1.000000" stroke="none" 
	d="
M513.000000,224.531342 
	C511.284943,225.986115 511.123566,224.593964 511.044159,223.569199 
	C509.573792,204.590714 504.327240,186.487915 497.955933,168.709579 
	C489.825409,146.022400 478.264679,125.152924 464.201721,105.552681 
	C453.858063,91.136116 441.653351,78.476105 428.793152,66.464630 
	C415.169464,53.740021 399.889069,43.171013 383.667175,33.873692 
	C367.402161,24.551622 350.366852,17.236502 332.462128,11.828365 
	C318.850800,7.717059 305.160492,3.976057 290.884888,3.024489 
	C289.774414,2.950470 288.987030,2.581679 288.684448,1.359983 
	C362.261658,1.000000 435.523407,1.035820 508.784790,0.894920 
	C512.473450,0.887826 513.097412,1.757346 513.091553,5.276858 
	C512.970032,78.205315 513.000000,151.134018 513.000000,224.531342 
z"/>
<path fill="#000000" opacity="1.000000" stroke="none" 
	d="
M289.468658,513.000000 
	C288.033386,511.265656 289.441162,511.146790 290.460571,511.063019 
	C309.275238,509.517334 327.214233,504.338745 344.907135,498.082489 
	C369.458466,489.401093 391.745178,476.682434 412.575836,461.116058 
	C426.017548,451.071320 437.437012,438.959442 449.268005,427.238739 
	C450.285278,426.230957 450.989319,424.907013 451.965210,423.411499 
	C460.361237,414.810822 466.769562,405.097778 473.085724,395.355835 
	C490.185364,368.981476 501.837799,340.364624 508.044678,309.524078 
	C509.322235,303.176178 511.045441,296.918793 511.017853,290.377594 
	C511.013824,289.426178 511.637360,288.896576 512.640564,288.683197 
	C513.000000,362.261658 512.964172,435.523407 513.105042,508.784790 
	C513.112183,512.473450 512.242676,513.097412 508.723145,513.091553 
	C435.794708,512.970032 362.865967,513.000000 289.468658,513.000000 
z"/>
<path fill="#000000" opacity="1.000000" stroke="none" 
	d="
M224.531342,1.000000 
	C225.956146,3.209236 224.144348,2.862969 223.069992,2.977766 
	C198.677994,5.584119 175.528503,12.584556 153.114471,22.381952 
	C130.307968,32.350903 109.589195,45.536316 90.730133,61.744698 
	C67.364090,81.826599 47.977985,105.076942 32.908016,132.048157 
	C19.368538,156.280197 10.258628,181.962021 4.868066,209.124329 
	C3.844432,214.282303 4.272607,219.770966 1.358893,224.308258 
	C1.000000,151.071487 1.036031,78.142906 0.894796,5.214671 
	C0.887650,1.524596 1.759262,0.902722 5.277360,0.908576 
	C78.205650,1.029919 151.134186,1.000000 224.531342,1.000000 
z"/>
<path fill="#ECD0B6" opacity="1.000000" stroke="none" 
	d="
M234.463181,513.000000 
	C238.057007,511.148224 242.235504,511.997925 246.697891,512.721313 
	C242.975449,513.000000 238.950912,513.000000 234.463181,513.000000 
z"/>
<path fill="#ECD3B5" opacity="1.000000" stroke="none" 
	d="
M267.463196,513.000000 
	C271.061951,511.192657 275.245239,511.976410 279.706268,512.709351 
	C275.975464,513.000000 271.950897,513.000000 267.463196,513.000000 
z"/>
<path fill="#F2CEA5" opacity="1.000000" stroke="none" 
	d="
M190.273834,339.369751 
	C173.669479,316.848175 166.635574,290.848572 160.021774,264.682831 
	C155.136093,245.353958 151.474716,225.625519 150.553391,205.870071 
	C149.440399,182.004761 146.438995,157.537445 156.982941,134.533951 
	C165.444672,116.073181 178.979965,102.614372 197.310440,94.116249 
	C211.321869,87.620461 226.154053,84.712036 241.633194,83.728485 
	C267.552887,82.081535 292.823730,83.952461 316.309601,95.834816 
	C340.696075,108.172844 355.898804,128.265564 360.570129,155.132233 
	C363.146759,169.951416 362.485504,185.177979 361.331818,200.331467 
	C360.475067,211.584549 359.868469,222.834274 357.989471,233.968948 
	C352.666473,265.511963 345.734467,296.591583 330.866272,325.293152 
	C328.882477,329.122650 326.436035,332.712433 324.057526,336.729614 
	C323.650146,337.470551 323.437775,337.918518 323.147217,338.743256 
	C318.012146,347.346771 310.915100,353.626617 303.187347,359.088257 
	C288.695038,369.330627 273.002411,376.691315 254.737091,376.417511 
	C244.757217,376.267914 235.492340,372.999939 226.489120,368.952637 
	C212.779678,362.789795 201.039780,354.004578 191.175369,342.167419 
	C190.670837,341.156464 190.511902,340.435089 190.273834,339.369751 
z"/>
<path fill="#D4B08C" opacity="1.000000" stroke="none" 
	d="
M190.784882,340.699219 
	C197.846085,346.740967 203.549149,353.753845 211.147385,358.678314 
	C225.545212,368.009705 240.678986,375.501984 258.309570,374.898743 
	C274.927551,374.330139 289.349731,367.212982 302.670959,357.760498 
	C310.271515,352.367249 316.646454,345.648529 322.750763,338.220276 
	C323.153046,337.883728 323.290863,337.742737 323.614075,337.832153 
	C323.780853,344.040680 323.762207,350.018768 323.630432,356.446533 
	C320.064819,357.682373 318.936584,360.917450 316.899414,363.189819 
	C302.679474,379.051697 285.965424,390.553101 264.413483,394.074768 
	C248.917053,396.606934 235.754227,390.516510 222.992981,383.270264 
	C211.317673,376.640656 201.785797,367.444427 193.973083,356.497070 
	C193.230652,355.456726 192.718826,354.061737 190.791382,353.937347 
	C189.713440,349.942108 190.180252,345.950745 190.159225,341.518127 
	C190.314194,340.849304 190.430557,340.637665 190.784882,340.699219 
z"/>
<path fill="#E0C0A1" opacity="1.000000" stroke="none" 
	d="
M190.995514,340.691223 
	C191.022842,340.972351 190.609314,341.018890 190.403580,341.039917 
	C190.145248,340.615356 190.092651,340.169739 190.062485,339.388733 
	C190.379333,339.505585 190.673752,339.957825 190.995514,340.691223 
z"/>
<path fill="#DFC0A1" opacity="1.000000" stroke="none" 
	d="
M323.856873,337.811676 
	C323.799500,338.062592 323.407501,338.037689 323.211365,338.031219 
	C323.103302,337.721100 323.269501,337.468964 323.712494,337.157166 
	C323.912201,337.217590 323.913239,337.389160 323.856873,337.811676 
z"/>
</svg>