<svg width="25" height="24" viewBox="0 0 25 24" fill="none" xmlns="http://www.w3.org/2000/svg">
<mask id="mask0_224_674" style="mask-type:alpha" maskUnits="userSpaceOnUse" x="0" y="0" width="25" height="24">
<rect x="0.5" width="24" height="24" fill="#D9D9D9"/>
</mask>
<g mask="url(#mask0_224_674)">
<path d="M4.5 19V17H6.5V10C6.5 8.61667 6.91667 7.3875 7.75 6.3125C8.58333 5.2375 9.66667 4.53333 11 4.2V3.5C11 3.08333 11.1458 2.72917 11.4375 2.4375C11.7292 2.14583 12.0833 2 12.5 2C12.9167 2 13.2708 2.14583 13.5625 2.4375C13.8542 2.72917 14 3.08333 14 3.5V4.2C15.3333 4.53333 16.4167 5.2375 17.25 6.3125C18.0833 7.3875 18.5 8.61667 18.5 10V17H20.5V19H4.5ZM12.5 22C11.95 22 11.4792 21.8042 11.0875 21.4125C10.6958 21.0208 10.5 20.55 10.5 20H14.5C14.5 20.55 14.3042 21.0208 13.9125 21.4125C13.5208 21.8042 13.05 22 12.5 22ZM8.5 17H16.5V10C16.5 8.9 16.1083 7.95833 15.325 7.175C14.5417 6.39167 13.6 6 12.5 6C11.4 6 10.4583 6.39167 9.675 7.175C8.89167 7.95833 8.5 8.9 8.5 10V17Z" fill="#1C1B1F"/>
</g>
</svg>
